<?xml version="1.0" standalone="no"?>
<!DOCTYPE svg PUBLIC "-//W3C//DTD SVG 20010904//EN"
 "http://www.w3.org/TR/2001/REC-SVG-20010904/DTD/svg10.dtd">
<svg version="1.0" xmlns="http://www.w3.org/2000/svg"
 width="285.000000pt" height="285.000000pt" viewBox="0 0 285.000000 285.000000"
 preserveAspectRatio="xMidYMid meet">
<metadata>
Created by potrace 1.15, written by Peter Selinger 2001-2017
</metadata>
<g transform="translate(0.000000,285.000000) scale(0.100000,-0.100000)"
fill="#000000" stroke="none">
<path d="M1407 2831 c-107 -43 -166 -120 -174 -226 -17 -206 216 -342 407
-239 144 78 180 267 73 385 -78 86 -207 120 -306 80z"/>
<path d="M1340 2204 c-14 -2 -52 -9 -85 -15 -318 -56 -616 -237 -686 -416 -30
-77 -32 -191 -5 -246 11 -22 25 -41 32 -44 7 -2 48 20 91 50 312 218 705 288
1092 196 227 -54 415 -161 524 -296 96 -119 137 -229 137 -362 0 -129 -34
-230 -114 -337 -43 -59 -62 -64 -26 -7 54 84 73 162 68 276 -3 98 -5 106 -52
202 -42 87 -60 111 -140 191 -80 78 -107 97 -207 147 -134 67 -258 102 -416
117 -201 19 -437 -16 -631 -92 -77 -30 -58 -32 29 -3 364 124 796 85 1072 -96
317 -208 401 -554 190 -781 -47 -50 -131 -105 -193 -127 -19 -7 -44 -17 -55
-22 -46 -19 -149 -40 -179 -35 -24 5 -26 4 -11 -3 13 -7 15 -10 5 -10 -8 0
-22 4 -30 9 -10 6 -11 10 -2 10 6 0 12 6 12 14 0 8 9 18 20 21 20 6 28 25 10
25 -6 0 -8 21 -4 52 7 70 10 77 31 74 10 -2 12 -1 6 1 -7 3 -13 11 -13 18 0 7
6 16 13 18 6 2 -1 3 -17 1 l-28 -4 23 21 c21 18 21 20 4 14 -11 -4 -29 -9 -40
-10 -11 -2 -54 -8 -95 -13 -341 -47 -639 -5 -900 129 -210 107 -340 261 -402
476 -20 67 -23 100 -22 238 1 138 4 173 26 256 15 53 42 131 62 173 43 93 31
89 -36 -13 -66 -101 -111 -197 -144 -306 -24 -79 -27 -108 -28 -235 -1 -123 2
-157 22 -223 79 -272 272 -476 606 -638 234 -114 380 -144 691 -144 306 1 396
23 705 167 337 158 481 351 481 643 0 361 -277 698 -708 861 -148 56 -263 75
-468 79 -104 2 -201 2 -215 -1z"/>
<path d="M211 1787 c-100 -163 -138 -410 -91 -604 53 -220 186 -406 410 -572
320 -237 751 -315 1213 -220 112 23 319 88 364 114 15 9 19 13 8 10 -82 -26
-277 -67 -387 -81 -179 -22 -469 -15 -613 16 -103 22 -254 74 -340 118 -157
79 -357 250 -445 381 -55 82 -113 208 -134 291 -39 151 -30 349 23 520 11 33
17 60 16 60 -2 0 -13 -15 -24 -33z"/>
</g>
</svg>
